<svg xmlns="http://www.w3.org/2000/svg" version="1.1" width="519" height="215">
    <svg width="519" height="215" viewBox="0 0 519 215" fill="none" xmlns="http://www.w3.org/2000/svg">
        <path d="M10 46.889C10 40.9364 12.3647 35.2276 16.5738 31.0184C20.783 26.8093 26.4918 24.4446 32.4444 24.4446H167.111C173.064 24.4446 178.773 26.8093 182.982 31.0184C187.191 35.2276 189.556 40.9364 189.556 46.889V181.556C189.556 187.508 187.191 193.217 182.982 197.426C178.773 201.635 173.064 204 167.111 204H32.4444C26.4918 204 20.783 201.635 16.5738 197.426C12.3647 193.217 10 187.508 10 181.556V46.889Z"
              stroke="#141E33" stroke-width="20" stroke-linecap="round" stroke-linejoin="round"></path>
        <path d="M144.667 2V46.8889" stroke="#141E33" stroke-width="16" stroke-linejoin="round"></path>
        <path d="M54.8892 2V46.8889" stroke="#141E33" stroke-width="16" stroke-linejoin="round"></path>
        <path d="M10 60.835H189.556" stroke="#141E33" stroke-width="12" stroke-linejoin="round"></path>
        <path d="M128.744 158.809V178H106.458V158.809H55V138.008L99.3214 82H128.744V138.008H142L139.089 158.809H128.744ZM106.458 138.008V104.385L79.9921 138.008H106.458Z"
              fill="#00FFA3"></path>
        <path d="M436.408 166.05C436.977 176.016 444.386 181.997 457.768 181.997C471.149 181.997 477.708 177.154 477.708 169.754C477.708 165.48 475.431 160.926 464.888 158.649L438.685 152.957C412.483 147.264 399.67 135.87 399.67 110.807C399.67 81.1888 425.015 64.0947 459.195 64.0947C493.375 64.0947 515.304 83.4658 515.304 112.226H473.723C473.723 102.54 467.742 95.9897 457.206 95.9897C447.24 95.9897 440.97 101.113 440.97 108.802C440.97 115.353 446.382 119.057 456.349 121.334L482.831 127.027C506.187 132.15 519 142.974 519 165.761C519 196.237 493.078 214.75 456.06 214.75C419.042 214.75 394.828 194.81 394.828 166.05H436.408Z"
              fill="#141E33"></path>
        <path d="M298.372 108.794H282.633V214.742H238.784V108.786H220.784V72.345H238.784V60.9517C238.784 18.5132 260.721 0 294.035 0C300.008 0 306.871 0.553232 313.702 1.69177L303.464 39.2874H301.451C286.346 39.2874 282.641 48.6924 282.641 60.9517V72.353H302.75"
              fill="#141E33"></path>
        <path d="M327.935 108.802V214.75H372.081V72.345H327.935V108.802Z" fill="#141E33"></path>
        <path d="M362.568 4.3558C366.345 6.53689 369.488 9.66672 371.684 13.4355C373.88 17.2042 375.054 21.4812 375.089 25.843C375.124 30.2048 374.02 34.5002 371.885 38.304C369.75 42.1077 366.658 45.2879 362.917 47.5297C359.175 49.7715 354.913 50.9972 350.551 51.0855C346.19 51.1738 341.882 50.1215 338.052 48.0329C334.223 45.9443 331.006 42.8918 328.718 39.1776C326.431 35.4633 325.154 31.2162 325.013 26.8565L325 26.045L325.013 25.2336C325.153 20.9082 326.411 16.693 328.666 12.9989C330.92 9.30482 334.093 6.25787 337.876 4.15515C341.658 2.05242 345.921 0.965661 350.248 1.00083C354.576 1.03599 358.82 2.19188 362.568 4.3558ZM350.045 11.0179C349.432 11.0179 348.84 11.2432 348.381 11.6508C347.923 12.0584 347.63 12.6201 347.558 13.2294L347.541 13.5224V26.045L347.563 26.3731C347.62 26.8077 347.791 27.2196 348.057 27.5678L348.275 27.8182L355.788 35.3318L356.024 35.5372C356.463 35.878 357.003 36.063 357.559 36.063C358.115 36.063 358.655 35.878 359.094 35.5372L359.33 35.3293L359.537 35.0939C359.878 34.6547 360.063 34.1146 360.063 33.5586C360.063 33.0027 359.878 32.4626 359.537 32.0234L359.33 31.7879L352.55 25.0057V13.5224L352.532 13.2294C352.461 12.6201 352.168 12.0584 351.709 11.6508C351.251 11.2432 350.659 11.0179 350.045 11.0179Z"
              fill="#00FFA3"></path>
    </svg>
    <style>@media (prefers-color-scheme: light) { :root { filter: none; } }
        @media (prefers-color-scheme: dark) { :root { filter: none; } }
    </style>
</svg>