<svg width="720" height="720" viewBox="0 0 720 720" fill="none" xmlns="http://www.w3.org/2000/svg">
    <rect width="720" height="720" fill="white"/>
    <path d="M105 301.889C105 295.936 107.365 290.228 111.574 286.018C115.783 281.809 121.492 279.445 127.444 279.445H262.111C268.064 279.445 273.773 281.809 277.982 286.018C282.191 290.228 284.556 295.936 284.556 301.889V436.556C284.556 442.508 282.191 448.217 277.982 452.426C273.773 456.635 268.064 459 262.111 459H127.444C121.492 459 115.783 456.635 111.574 452.426C107.365 448.217 105 442.508 105 436.556V301.889Z"
          stroke="#141E33" stroke-width="20" stroke-linecap="round" stroke-linejoin="round"/>
    <path d="M239.667 257V301.889" stroke="#141E33" stroke-width="16" stroke-linejoin="round"/>
    <path d="M149.889 257V301.889" stroke="#141E33" stroke-width="16" stroke-linejoin="round"/>
    <path d="M105 315.835H284.556" stroke="#141E33" stroke-width="12" stroke-linejoin="round"/>
    <path d="M223.744 413.809V433H201.458V413.809H150V393.008L194.321 337H223.744V393.008H237L234.089 413.809H223.744ZM201.458 393.008V359.385L174.992 393.008H201.458Z"
          fill="#00FFA3"/>
    <path d="M531.408 419.05C531.977 429.016 539.386 434.997 552.768 434.997C566.149 434.997 572.708 430.154 572.708 422.754C572.708 418.48 570.431 413.926 559.888 411.649L533.685 405.957C507.483 400.264 494.67 388.87 494.67 363.807C494.67 334.189 520.015 317.095 554.195 317.095C588.375 317.095 610.304 336.466 610.304 365.226H568.723C568.723 355.54 562.742 348.99 552.206 348.99C542.24 348.99 535.97 354.113 535.97 361.802C535.97 368.353 541.382 372.057 551.349 374.334L577.831 380.027C601.187 385.15 614 395.974 614 418.761C614 449.237 588.078 467.75 551.06 467.75C514.042 467.75 489.828 447.81 489.828 419.05H531.408Z"
          fill="#141E33"/>
    <path d="M393.372 361.794H377.633V467.742H333.784V361.786H315.784V325.345H333.784V313.952C333.784 271.513 355.721 253 389.035 253C395.008 253 401.871 253.553 408.702 254.692L398.464 292.287H396.451C381.346 292.287 377.641 301.692 377.641 313.952V325.353H397.75"
          fill="#141E33"/>
    <path d="M422.935 361.802V467.75H467.081V325.345H422.935V361.802Z" fill="#141E33"/>
    <path d="M457.568 257.356C461.345 259.537 464.488 262.667 466.684 266.435C468.88 270.204 470.054 274.481 470.089 278.843C470.124 283.205 469.02 287.5 466.885 291.304C464.75 295.108 461.658 298.288 457.917 300.53C454.175 302.772 449.913 303.997 445.551 304.086C441.19 304.174 436.882 303.122 433.052 301.033C429.223 298.944 426.006 295.892 423.718 292.178C421.431 288.463 420.154 284.216 420.013 279.857L420 279.045L420.013 278.234C420.153 273.908 421.411 269.693 423.666 265.999C425.92 262.305 429.093 259.258 432.876 257.155C436.658 255.052 440.921 253.966 445.248 254.001C449.576 254.036 453.82 255.192 457.568 257.356ZM445.045 264.018C444.432 264.018 443.84 264.243 443.381 264.651C442.923 265.058 442.63 265.62 442.558 266.229L442.541 266.522V279.045L442.563 279.373C442.62 279.808 442.791 280.22 443.057 280.568L443.275 280.818L450.788 288.332L451.024 288.537C451.463 288.878 452.003 289.063 452.559 289.063C453.115 289.063 453.655 288.878 454.094 288.537L454.33 288.329L454.537 288.094C454.878 287.655 455.063 287.115 455.063 286.559C455.063 286.003 454.878 285.463 454.537 285.023L454.33 284.788L447.55 278.006V266.522L447.532 266.229C447.461 265.62 447.168 265.058 446.709 264.651C446.251 264.243 445.659 264.018 445.045 264.018Z"
          fill="#00FFA3"/>
</svg>
