<svg width="160" height="144" viewBox="0 0 160 144" fill="none" xmlns="http://www.w3.org/2000/svg">
<path d="M158.596 54.9262C158.539 54.9263 158.483 54.9087 158.436 54.8759L80.8055 0.811813C80.5692 0.648052 80.2885 0.560534 80.0011 0.561025C79.7136 0.561515 79.4332 0.649988 79.1975 0.814554L2.12612 54.8754C2.06516 54.9181 1.98971 54.9349 1.91637 54.9221C1.84303 54.9092 1.77781 54.8677 1.73505 54.8067C1.69229 54.7458 1.6755 54.6703 1.68837 54.597C1.70124 54.5237 1.74272 54.4584 1.80368 54.4157L78.8751 0.35485C79.2051 0.124492 79.5977 0.000664034 80.0002 2.66318e-06C80.4026 -0.000658707 80.7956 0.121878 81.1263 0.35115L158.757 54.4151C158.806 54.4493 158.843 54.4982 158.862 54.5548C158.881 54.6114 158.882 54.6726 158.864 54.7297C158.846 54.7867 158.811 54.8365 158.762 54.8718C158.714 54.9072 158.656 54.9263 158.596 54.9262Z" fill="#141E33"/>
<path d="M6.53015 56.8429L80.0774 2.33545L154.183 60.7214L83.8668 102.406L45.6914 93.7038L6.53015 56.8429Z" fill="#D0EEFA"/>
<path d="M48.9138 128.152H12.5797C12.3566 128.153 12.1356 128.109 11.9294 128.024C11.7232 127.939 11.5358 127.814 11.378 127.656C11.2201 127.498 11.0949 127.311 11.0094 127.105C10.924 126.899 10.88 126.678 10.88 126.455C10.88 126.232 10.924 126.011 11.0094 125.805C11.0949 125.599 11.2201 125.411 11.378 125.254C11.5358 125.096 11.7232 124.971 11.9294 124.886C12.1356 124.801 12.3566 124.757 12.5797 124.757H48.9138C49.1369 124.757 49.3579 124.801 49.5641 124.886C49.7703 124.971 49.9577 125.096 50.1155 125.254C50.2734 125.411 50.3986 125.599 50.4841 125.805C50.5695 126.011 50.6135 126.232 50.6135 126.455C50.6135 126.678 50.5695 126.899 50.4841 127.105C50.3986 127.311 50.2734 127.498 50.1155 127.656C49.9577 127.814 49.7703 127.939 49.5641 128.024C49.3579 128.109 49.1369 128.153 48.9138 128.152Z" fill="#00FFA3"/>
<path d="M25.6156 120.854H12.5797C12.3566 120.854 12.1356 120.81 11.9294 120.725C11.7232 120.64 11.5358 120.515 11.378 120.357C11.2201 120.199 11.0949 120.012 11.0094 119.806C10.924 119.6 10.88 119.379 10.88 119.156C10.88 118.933 10.924 118.712 11.0094 118.506C11.0949 118.3 11.2201 118.113 11.378 117.955C11.5358 117.797 11.7232 117.672 11.9294 117.587C12.1356 117.502 12.3566 117.458 12.5797 117.458H25.6156C25.8387 117.458 26.0596 117.502 26.2659 117.587C26.4721 117.672 26.6594 117.797 26.8173 117.955C26.9752 118.113 27.1004 118.3 27.1858 118.506C27.2713 118.712 27.3153 118.933 27.3153 119.156C27.3153 119.379 27.2713 119.6 27.1858 119.806C27.1004 120.012 26.9752 120.199 26.8173 120.357C26.6594 120.515 26.4721 120.64 26.2659 120.725C26.0596 120.81 25.8387 120.854 25.6156 120.854Z" fill="#00FFA3"/>
<path d="M81.1118 87.2025C80.8356 87.2028 80.562 87.1492 80.3064 87.0448L34.9476 68.2241V9.31208C34.9482 8.79114 35.1554 8.29171 35.5237 7.92335C35.8921 7.55499 36.3915 7.34777 36.9125 7.34717H123.93C124.451 7.34778 124.95 7.55499 125.319 7.92335C125.687 8.29171 125.894 8.79114 125.895 9.31208V68.2652L125.81 68.3016L81.9415 87.0356C81.6788 87.146 81.3967 87.2027 81.1118 87.2025Z" fill="white"/>
<path d="M81.1115 87.343C80.817 87.3433 80.5253 87.2862 80.2527 87.1749L34.8069 68.318V9.31229C34.8076 8.75414 35.0296 8.21902 35.4243 7.82435C35.8189 7.42967 36.3541 7.20766 36.9122 7.20703H123.93C124.488 7.20766 125.023 7.42967 125.418 7.82435C125.812 8.21902 126.034 8.75414 126.035 9.31229V68.358L81.9964 87.1648C81.7163 87.2826 81.4154 87.3432 81.1115 87.343ZM35.3683 67.943L80.4668 86.6559C80.8874 86.8265 81.3585 86.8237 81.7771 86.6481L125.474 67.9874V9.31229C125.473 8.90299 125.31 8.51058 125.021 8.22116C124.731 7.93173 124.339 7.76892 123.93 7.76843H36.9122C36.5029 7.76892 36.1105 7.93173 35.8211 8.22116C35.5317 8.51058 35.3688 8.90299 35.3684 9.31229L35.3683 67.943Z" fill="#141E33"/>
<path d="M158.035 54.3647H157.979L125.754 68.1247L81.6646 86.9514C81.4923 87.0239 81.3075 87.0617 81.1206 87.0626C80.9337 87.0636 80.7484 87.0277 80.5754 86.957L35.0877 68.0854L2.07155 54.3872L2.02111 54.3647H1.96491C1.44396 54.3653 0.944513 54.5725 0.576146 54.9409C0.207779 55.3093 0.000578035 55.8087 0 56.3297V141.663C0.000578777 142.184 0.207779 142.683 0.576146 143.052C0.944513 143.42 1.44396 143.627 1.96491 143.628H158.035C158.556 143.627 159.055 143.42 159.424 143.052C159.792 142.683 159.999 142.184 160 141.663V56.3297C159.999 55.8087 159.792 55.3093 159.424 54.9409C159.055 54.5725 158.556 54.3653 158.035 54.3647ZM159.439 141.663C159.438 142.035 159.291 142.392 159.027 142.655C158.764 142.918 158.407 143.066 158.035 143.066H1.96491C1.59272 143.066 1.23582 142.918 0.972648 142.655C0.709471 142.392 0.561552 142.035 0.561404 141.663V56.3297C0.561912 55.9667 0.702698 55.618 0.954324 55.3564C1.20595 55.0949 1.54894 54.9407 1.9116 54.9261L35.0877 68.6917L80.3594 87.4763C80.8494 87.6757 81.3986 87.6727 81.8864 87.4679L125.754 68.7339L158.091 54.9261C158.453 54.9418 158.795 55.0964 159.046 55.3578C159.297 55.6192 159.438 55.9673 159.439 56.3297V141.663Z" fill="#141E33"/>
<path d="M80.6583 70.4973C78.9838 70.5004 77.3537 69.9589 76.0138 68.9545L75.9308 68.8922L58.44 55.5006C57.6299 54.8799 56.9501 54.1058 56.4392 53.2224C55.9284 52.339 55.5965 51.3637 55.4626 50.352C55.3287 49.3404 55.3953 48.3122 55.6588 47.3264C55.9222 46.3405 56.3772 45.4161 56.9978 44.6061C57.6185 43.7961 58.3926 43.1162 59.276 42.6053C60.1594 42.0945 61.1348 41.7626 62.1464 41.6287C63.1581 41.4948 64.1862 41.5614 65.1721 41.8249C66.158 42.0883 67.0823 42.5433 67.8923 43.164L79.2216 51.851L105.994 16.9355C106.615 16.1257 107.39 15.4461 108.273 14.9355C109.157 14.425 110.132 14.0934 111.144 13.9599C112.156 13.8263 113.184 13.8934 114.169 14.1572C115.155 14.421 116.079 14.8763 116.889 15.4973L116.723 15.7233L116.894 15.5006C118.527 16.7561 119.596 18.6082 119.866 20.6507C120.135 22.6932 119.584 24.7593 118.332 26.3956L86.8406 67.4647C86.1123 68.411 85.1757 69.1769 84.1035 69.7028C83.0314 70.2288 81.8525 70.5006 80.6583 70.4973Z" fill="#00FFA3"/>
</svg>
